<?xml version="1.0" encoding="UTF-8"?>
<svg id="Layer_1" xmlns="http://www.w3.org/2000/svg" version="1.1" viewBox="0 0 640 640">
  <!-- Generator: Adobe Illustrator 30.2.1, SVG Export Plug-In . SVG Version: 2.1.1 Build 1)  -->
  <defs>
    <style>
      .st0 {
        fill: #f18b5d;
      }
    </style>
  </defs>
  <path class="st0" d="M320,576c141.4,0,256-114.6,256-256S461.4,64,320,64,64,178.6,64,320s114.6,256,256,256ZM303,441l-80-80c-9.4-9.4-9.4-24.6,0-33.9,9.4-9.3,24.6-9.4,33.9,0l39,39v-150.1c0-13.3,10.7-24,24-24s24,10.7,24,24v150.1l39-39c9.4-9.4,24.6-9.4,33.9,0,9.3,9.4,9.4,24.6,0,33.9l-80,80c-9.4,9.4-24.6,9.4-33.9,0h.1Z"/>
</svg>