<svg id="Group_819" data-name="Group 819" xmlns="http://www.w3.org/2000/svg" width="50" height="50" viewBox="0 0 50 50">
  <path id="Path_1470" data-name="Path 1470" d="M25,0A25,25,0,1,0,50,25,25,25,0,0,0,25,0M40.613,31.474a9.37,9.37,0,0,1-2.537,6.585v.01a9.379,9.379,0,0,1-6.588,2.547c-2.6.147-10.382.147-12.977,0a9.379,9.379,0,0,1-6.588-2.547,9.327,9.327,0,0,1-2.537-6.588c-.147-2.6-.147-10.382,0-12.977a9.37,9.37,0,0,1,2.537-6.588A9.344,9.344,0,0,1,18.511,9.38c2.6-.147,10.382-.147,12.977,0a9.37,9.37,0,0,1,6.588,2.537A9.327,9.327,0,0,1,40.613,18.5c.147,2.586.147,10.361,0,12.968" transform="translate(-0.001)" fill="#f18b5d"/>
  <path id="Path_1471" data-name="Path 1471" d="M203.314,201.819a5.244,5.244,0,1,0,7.275,1.445,5.244,5.244,0,0,0-7.275-1.445" transform="translate(-181.225 -181.178)" fill="#f18b5d"/>
  <path id="Path_1472" data-name="Path 1472" d="M148.174,126.528a5.384,5.384,0,0,0-1.18-1.809v.02a5.287,5.287,0,0,0-1.809-1.18c-1.779-.7-5.663-.668-8.171-.634-.4,0-.777.01-1.1.01s-.708,0-1.121-.01c-2.507-.03-6.371-.069-8.151.634a5.382,5.382,0,0,0-1.809,1.18,5.148,5.148,0,0,0-1.18,1.809c-.7,1.779-.659,5.674-.634,8.18,0,.4.01.777.01,1.091s0,.688-.01,1.091c-.02,2.507-.059,6.4.634,8.181a5.383,5.383,0,0,0,1.18,1.809,5.148,5.148,0,0,0,1.809,1.18c1.779.7,5.663.668,8.171.634.4,0,.777-.01,1.1-.01s.708,0,1.121.01c2.507.03,6.371.069,8.151-.634a5.383,5.383,0,0,0,1.809-1.18,5.149,5.149,0,0,0,1.18-1.809c.708-1.77.668-5.644.634-8.16,0-.413-.01-.8-.01-1.121s0-.7.01-1.121c.03-2.507.069-6.381-.634-8.16M142.619,140.3a8.067,8.067,0,1,1-2.232-11.19h.009a8.066,8.066,0,0,1,2.22,11.19m3.431-12.173a1.939,1.939,0,0,1-.4.61,1.86,1.86,0,0,1-.61.413,1.8,1.8,0,0,1-.718.147,1.858,1.858,0,0,1-1.043-.317h-.01a1.957,1.957,0,0,1-.7-.846,1.892,1.892,0,0,1,.4-2.055,1.809,1.809,0,0,1,.963-.512,1.886,1.886,0,0,1,1.091.106,1.936,1.936,0,0,1,.846.688,1.857,1.857,0,0,1,.317,1.043,1.982,1.982,0,0,1-.137.718" transform="translate(-110.914 -110.824)" fill="#f18b5d"/>
</svg>
