<svg id="Image_icon" xmlns="http://www.w3.org/2000/svg" width="25" height="25" viewBox="0 0 25 25">
  <path id="image-light-full" d="M117.429,97.786a1.784,1.784,0,0,1,1.786,1.786v17.857a1.784,1.784,0,0,1-1.786,1.786H99.571a1.784,1.784,0,0,1-1.786-1.786V99.571a1.784,1.784,0,0,1,1.786-1.786ZM99.571,96A3.575,3.575,0,0,0,96,99.571v17.857A3.575,3.575,0,0,0,99.571,121h17.857A3.575,3.575,0,0,0,121,117.429V99.571A3.575,3.575,0,0,0,117.429,96Zm3.571,8.036a.893.893,0,1,1,.893-.893A.9.9,0,0,1,103.143,104.036Zm-2.679-.893a2.679,2.679,0,1,0,2.679-2.679A2.679,2.679,0,0,0,100.464,103.143Zm9.448,3.331a.442.442,0,0,1,.748,0l4.911,7.589a.449.449,0,0,1-.374.692H101.8a.452.452,0,0,1-.4-.24.447.447,0,0,1,.028-.463l3.125-4.464a.452.452,0,0,1,.737,0l.592.848a.892.892,0,0,0,1.479-.028l2.545-3.929Zm.374-1.992a2.234,2.234,0,0,0-1.875,1.021l-1.836,2.835a2.232,2.232,0,0,0-3.482.223l-3.125,4.464a2.231,2.231,0,0,0,1.836,3.51H115.2a2.23,2.23,0,0,0,1.869-3.443l-4.911-7.589a2.234,2.234,0,0,0-1.875-1.021Z" transform="translate(-96 -96)"/>
</svg>
