<svg id="Podpis" xmlns="http://www.w3.org/2000/svg" xmlns:xlink="http://www.w3.org/1999/xlink" width="260" height="62.812" viewBox="0 0 260 62.812">
  <defs>
    <clipPath id="clip-path">
      <path id="Path_8819" data-name="Path 8819" d="M0,5.174H260V-57.638H0Z" transform="translate(0 57.638)" fill="none"/>
    </clipPath>
  </defs>
  <g id="Group_826" data-name="Group 826" clip-path="url(#clip-path)">
    <g id="Group_818" data-name="Group 818" transform="translate(136.973 18.661)">
      <path id="Path_8811" data-name="Path 8811" d="M2.421,2.341a23.883,23.883,0,0,1-2.74.147A25.793,25.793,0,0,1-3.2,2C-4.318,3.158-5.489,4.385-6.684,5.59a13.238,13.238,0,0,1-3.6,2.912c-.893.42-1.8,1.622-2.843.6-.746-.728-.163-1.756.1-2.644.124-.415.165-.86.27-1.43C-14.176,4.7-15.5,4.4-16.714,4.12A3.014,3.014,0,0,0-18.636,5.5a22.065,22.065,0,0,1-5.322,5.171,4.505,4.505,0,0,1-1.214.666,2.325,2.325,0,0,1-1.3-.094c-.438-.169-.63-1.2-.4-1.695.263-.564.519-1.137.828-1.677a37.627,37.627,0,0,1,6.024-7.7,26.2,26.2,0,0,0,4.407-5.381c.135-.242.489-.354.744-.526a1.873,1.873,0,0,1,.943,1.981,17.556,17.556,0,0,1-.963,3.6c-.7,1.719.611,2.161,1.935,1.933A7.038,7.038,0,0,0-8.02-1.375,131.118,131.118,0,0,1,2.346-14.589c1.425-1.644,2.912-3.244,4.481-4.746a33.825,33.825,0,0,1,3.642-2.87c.914-.661,1.643-.657,2.105-.245a2.841,2.841,0,0,1,.851,2.092,6.127,6.127,0,0,1-.539,2.728,26.42,26.42,0,0,1-7.063,9.74C4.1-6.332,2.177-5,.407-3.5A7.586,7.586,0,0,0-.969-1.671c-.308.5.259,1.292.852,1.341A3.384,3.384,0,0,0,2.994-2c.445-.609.7-1.356,1.131-1.98a.866.866,0,0,1,.828-.046A3.962,3.962,0,0,1,6.439.492,13.248,13.248,0,0,1,5.361,2.548,5.879,5.879,0,0,0,4.109,5.013c.015.007.179.117.179.117l-.332-.143c.445.04.983.266,1.32.092A22.548,22.548,0,0,0,11.593.4a27.531,27.531,0,0,1,2.671-2.583,1.767,1.767,0,0,1,1.278-.077c.479.1.569,1.114.135,1.62-.6.707-1.261,1.363-1.881,2.051-.723.8-1.437,1.607-2.137,2.427a.548.548,0,0,0-.064.452.448.448,0,0,0,.734.283,39.777,39.777,0,0,0,7.593-6.115c.641-.658,1.363-1.237,2.063-1.832.1-.086.383-.138.435-.076.193.218.452.5.447.744A2.225,2.225,0,0,1,22.538-1.4c-1.2,1.426-2.544,2.73-3.7,4.192A9.283,9.283,0,0,0,17.691,5.3c-.049.132.272.521.5.615a1.37,1.37,0,0,0,.9.005,6.652,6.652,0,0,0,3.477-2.195,5.392,5.392,0,0,1,2.881-2.256,11.539,11.539,0,0,0,5.966-4.235A10.964,10.964,0,0,1,32.4-3.71c.753.288.653.954.794,1.518a.97.97,0,0,0,1.369.754c2.217-1.094,4.471-2.133,6.6-3.384a12.461,12.461,0,0,0,2.739-2.5q4.845-5.367,9.612-10.808c1.745-1.981,3.415-4.032,5.184-5.99A6.359,6.359,0,0,1,61.31-26.01a1.555,1.555,0,0,1,1.663.468,1.99,1.99,0,0,1,.391,1.267A12.293,12.293,0,0,1,59.9-17.78c-.193.187-.551.2-.834.3l.072.073a2.42,2.42,0,0,1,.085-.894c.512-.963,1.1-1.884,1.626-2.841a2.532,2.532,0,0,0,.208-.9c.015-.134-.044-.368-.132-.409-.244-.107-.648-.281-.769-.173A99.965,99.965,0,0,0,49.579-11.49a.591.591,0,0,0-.038.4c.278.082.638.26.84.155a16.914,16.914,0,0,0,2.765-1.663c1.325-1.072,2.516-2.309,3.814-3.417a3.846,3.846,0,0,1,1.246-.46l-.071-.072a1.866,1.866,0,0,1-.655,1.655A45.1,45.1,0,0,1,51.2-9.337a3.485,3.485,0,0,0-1.74,2.62,2.522,2.522,0,0,1-1.278,1.862,17.973,17.973,0,0,0-5.213,5.9,5.173,5.173,0,0,0-.542,1.283A1.1,1.1,0,0,0,42.8,3.578a1.2,1.2,0,0,0,.833.262,16.308,16.308,0,0,0,5.438-2.555,8.908,8.908,0,0,0,1.817-2.1,30.009,30.009,0,0,1,6.5-5.973,7.95,7.95,0,0,1,2.063-1.054c1.674-.6,2.392-.538,3.3,1.393a2.219,2.219,0,0,1-.061,2.241c-.864,1.291-1.8,2.538-2.782,3.742a13.662,13.662,0,0,0-3.269,6.712c.236.335.515.694.756,1.08.308.487.023,1.142-.62,1.485A.988.988,0,0,1,55.564,8.5q-.163-.435-.324-.872c-.3-.817.339-2.007-.784-2.46-.784-.316-1.445.359-2.126.7-.418.2-.819.444-1.239.641a1.5,1.5,0,0,1-2.044-.486c-.281-.366-.465-.808-.739-1.179a.96.96,0,0,0-1.226-.318c-.988.438-1.922,1.03-2.94,1.373-1.792.6-3.064.2-3.491-1.819-.126-.6-.236-1.194-.344-1.746a2,2,0,0,0-1.749.751C37.445,4.158,36.344,5.251,35.2,6.294a.775.775,0,0,1-.774-.038,1.034,1.034,0,0,1-.252-.838,4.375,4.375,0,0,1,.576-1.237c.57-.924,1.186-1.819,1.753-2.745a.486.486,0,0,0-.211-.762c-.134-.063-.3-.184-.412-.146-1.6.551-3.221,1.069-4.78,1.729a3.764,3.764,0,0,0-1.322,1.255C28.655,5,27.612,6.558,26.471,8.038A13.292,13.292,0,0,1,24.809,9.66a1.459,1.459,0,0,1-1.711,0A2.768,2.768,0,0,1,22.448,9c-.7-1.2-1.643-1.23-2.784-.732a7.157,7.157,0,0,1-1.773.514,2,2,0,0,1-2.523-1.46,1.7,1.7,0,0,0-.432-.809.926.926,0,0,0-.814-.183c-1.215.676-2.38,1.445-3.589,2.136a1.716,1.716,0,0,1-2.412-.529C7.211,6.92,7.028,6.847,6.276,7.219c-.971.481-1.926,1-2.922,1.422A4.1,4.1,0,0,1,2,8.8C1.5,8.827.806,8.011.85,7.528a9.206,9.206,0,0,1,1.235-3.5,2.079,2.079,0,0,0,.259-1.773c.574.217.839-.18,1.1-.58-.111-.356-.07-.421.072-.174.029.052-.083.186-.129.282-.592-.288-.921-.11-.968.562M-6.524.911l.2.112-.08-.229C-7.012,1.4-7.62,2.014-8.22,2.63A1.665,1.665,0,0,0-8.728,4.2a1.248,1.248,0,0,0-.393.109c-.049.035-.031.29-.013.293.33.063.436-.107.314-.488,1.057.218,1.587-.564,2.171-1.2a1.5,1.5,0,0,0,.126-2m3.84-5.86c.292.12.643.394.794.307A35.879,35.879,0,0,0,5.15-9.828a45.792,45.792,0,0,0,4-4.5,11.7,11.7,0,0,0,2.3-4.5c.054-.21-.213-.529-.384-.756-.048-.063-.318-.031-.434.043A12.1,12.1,0,0,0,8.378-18C5.811-15.323,3.258-12.629.831-9.826A20.135,20.135,0,0,0-2.683-4.948M58.642-2.879c-.083-.121-.148-.326-.252-.349a3.633,3.633,0,0,0-1.724-.235,3.931,3.931,0,0,0-1.819,1.309,25.925,25.925,0,0,1-3.555,4.168.673.673,0,0,0-.232.388c-.021.276-.07.645.076.812a.866.866,0,0,0,.785.2A14.7,14.7,0,0,0,58.5-2.023c.147-.213.1-.567.137-.855M24.174,6.991a5.244,5.244,0,0,0,.777-.4.472.472,0,0,0,.118-.423c-.118-.377-.42-.494-.725-.243a1.923,1.923,0,0,0-.456.734c-.025.06.183.22.286.336" transform="translate(26.973 26.08)" fill="#2b2e34"/>
    </g>
    <g id="Group_819" data-name="Group 819" transform="translate(0 2.413)">
      <path id="Path_8812" data-name="Path 8812" d="M2.624,2.286a22.116,22.116,0,0,0,6.256-3.9A8.565,8.565,0,0,1,10.3-2.8a1.864,1.864,0,0,1,1.3-.109,3.1,3.1,0,0,1,1.114.794,2.154,2.154,0,0,0,2.123.567c1.351-.321,2.69-.718,4.056-.936,1.945-.312,3.725-.107,4.651,2.067a.839.839,0,0,0,1.2.306,16.877,16.877,0,0,0,1.565-1c.392-.247.8-.477,1.2-.7.308-.172.853.147,1.1.6A1.789,1.789,0,0,1,28.7.57c-.6,1.09-1.25,2.148-1.814,3.253-.089.178.141.537.264.794a.645.645,0,0,0,.406-.077,36.792,36.792,0,0,0,5.969-5.18c.887-.87,1.71-1.809,2.6-2.669a1.39,1.39,0,0,1,.857-.2c.288-.007.665.818.563,1.152a3.492,3.492,0,0,1-.276.878c-.588.92-1.259,1.786-1.828,2.717s-1.069,1.9-1.558,2.869c-.359.713-.012,1.189,1,1.465a4.068,4.068,0,0,1,.435.1.841.841,0,0,1,.356,1.174A5.275,5.275,0,0,1,33.1,8.74c-1.35.6-2.2.19-2.87-1.322-.126-.286-.262-.566-.465-1.006-.532.305-1.057.59-1.566.9-1.057.652-2.081,1.353-3.158,1.968-1.477.845-2.417-.051-2.356-1.6a3.129,3.129,0,0,0,.011-.934,1.347,1.347,0,0,0-.5-.6c-.076-.059-.329.005-.422.1-1.322,1.3-2.629,2.622-3.945,3.93-.26.26-.974,0-1.176-.4A1.708,1.708,0,0,1,16.6,8c1.113-1.692,2.281-3.344,3.422-5.018.349-.511.687-1.03,1.009-1.557C21.324.947,20.77.1,20.19.072A11.247,11.247,0,0,0,16.1.7a4.987,4.987,0,0,0-3.331,2.985A25.726,25.726,0,0,1,7.328,11.8a2.422,2.422,0,0,1-1.2.584A.893.893,0,0,1,5.406,12a2.508,2.508,0,0,1-.066-2.265c.573-1.449,1.276-2.845,1.916-4.265a11.573,11.573,0,0,0,.7-1.712,1.051,1.051,0,0,0-.272-.836.869.869,0,0,0-.78-.213,11.51,11.51,0,0,0-2,1.164,53.4,53.4,0,0,0-9.112,8.663c-.294.355-.635.669-.957,1a.619.619,0,0,1-.854.083c-.429-.251-.773-.624-.67-1.1a4.818,4.818,0,0,1,.7-1.7c1.335-1.92,2.744-3.786,4.1-5.691.447-.629.825-1.306,1.212-1.975a.532.532,0,0,0,0-.423.543.543,0,0,0-.763-.319A13.031,13.031,0,0,0-6.092,6.185c-2.227,2.6-4.44,5.219-6.672,7.82-.4.47-.859.893-1.3,1.328a.956.956,0,0,1-1.252.04c-.264-.348-.608-.84-.541-1.2a5.481,5.481,0,0,1,.841-2.134,21.658,21.658,0,0,1,2.189-2.42c1.517-1.564,3.1-3.067,4.572-4.673A26.854,26.854,0,0,0-2.71-4.2,2.974,2.974,0,0,0-2.6-5.557.818.818,0,0,0-3.248-6,4.213,4.213,0,0,0-5.6-4.631,165.88,165.88,0,0,0-22.215,11.75c-1.746,1.981-3.229,4.2-4.855,6.292a7.57,7.57,0,0,1-1.006.931c-.238.21-1.1-.167-1.107-.515a4.754,4.754,0,0,1,.083-1.817A7.837,7.837,0,0,1-27.617,14.3C-22.3,8.77-18.2,2.3-13.836-3.964A92.6,92.6,0,0,0-8.3-12.633c1.338-2.465,2.518-5.017,3.725-7.553A3.663,3.663,0,0,0-4.4-21.538a.542.542,0,0,0-.233-.389.473.473,0,0,0-.414-.02A7.716,7.716,0,0,0-6.6-21c-1.6,1.483-3.156,3.006-4.7,4.546-.99.99-1.9,2.057-2.882,3.061A66.6,66.6,0,0,0-21.16-5.23c-1.164,1.656-2.5,3.19-3.763,4.773a.985.985,0,0,1-1.206.375,1.548,1.548,0,0,1-.812-1.545A10.779,10.779,0,0,1-25.83-4.164,26.777,26.777,0,0,1-23.073-7.33a96.019,96.019,0,0,0,9.492-10.93,9.057,9.057,0,0,1,4.221-3.5c.956-.35,1.674-1.351,2.51-2.047.6-.494,1.2-.982,1.819-1.447a1.37,1.37,0,0,1,1.935.6,6.09,6.09,0,0,1,.487,4.985,15.108,15.108,0,0,1-1.229,3.037c-1.079,2.077-2.222,4.119-3.375,6.156-1,1.765-2.061,3.5-3.058,5.262a.916.916,0,0,0,.047.822.763.763,0,0,0,.756.057C-8.205-5.232-7-6.208-5.733-7.111c.877-.629,1.8-1.2,2.723-1.756a1.307,1.307,0,0,1,1.616.473A4.971,4.971,0,0,1-.605-4.811c-.169.919-.441,1.817-.655,2.727-.1.425.22,1.028.677,1.023A2.566,2.566,0,0,1,2.094,1.053a11.886,11.886,0,0,0,.53,1.233" transform="translate(29.229 25.463)" fill="#2b2e34"/>
    </g>
    <g id="Group_820" data-name="Group 820" transform="translate(107.001 7.384)">
      <path id="Path_8813" data-name="Path 8813" d="M.792,4.043c-1.1.982-2.333,2.163-3.654,3.231S-5.589,9.315-6.977,10.3c-.405.287-1.322-.2-1.525-.728a4.6,4.6,0,0,1,.123-3.651A14.731,14.731,0,0,1-6.5,2.7C-4.426.167-2.243-2.27-.077-4.721c.177-.2.559-.213,1-.366.394,1,.786,2,1.192,3A.777.777,0,0,0,3.3-1.962c.229-.21.477-.4.687-.631,4.527-4.948,8.783-10.127,12.832-15.48a1.756,1.756,0,0,0,.154-.876c.023-.367-.428-.587-1.1-.544-1.08.071-2.16.19-3.241.21a10.135,10.135,0,0,1-1.841-.2,2.536,2.536,0,0,1-2.146-2.169,9.759,9.759,0,0,1-.146-2.785,16.993,16.993,0,0,1,.928-3.622A30.166,30.166,0,0,1,20.377-42.31a17.583,17.583,0,0,1,4.086-2.185,7.218,7.218,0,0,1,8.428,2.142,15.072,15.072,0,0,1,3.673,7.977A22.986,22.986,0,0,1,35.472-22.8,43.825,43.825,0,0,1,23.148-4.845,50.419,50.419,0,0,1,12.3,2.348C9.009,4,5.637,4.843,1.975,3.955a4.712,4.712,0,0,0-1.183.088M30.273-25.783c-1.778.94-3.517,1.968-5.345,2.8a10.349,10.349,0,0,0-3.9,3.182c-3.966,5-8,9.939-12.053,14.869C7.4-3.023,5.725-1.194,4.169.59a1.369,1.369,0,0,0,1.494,1.1A15.533,15.533,0,0,0,11.454.137a43.17,43.17,0,0,0,21.01-20.35A25.114,25.114,0,0,0,35.27-30.535a14.243,14.243,0,0,0-2.281-8.92,6.307,6.307,0,0,0-6.422-2.839A10.486,10.486,0,0,0,22.292-40.6,28.781,28.781,0,0,0,10.747-25.773a9.619,9.619,0,0,0-.341,2.3,1.563,1.563,0,0,0,.957,1.461,3.436,3.436,0,0,0,1.333.323,45.769,45.769,0,0,0,5.489-.813,7.575,7.575,0,0,0,4.538-3c2.291-3.143,4.774-6.143,7.2-9.185a4.318,4.318,0,0,1,1.045-.871.448.448,0,0,1,.738.268,2.406,2.406,0,0,1,.106,1.339,12.71,12.71,0,0,1-1.433,2.385c-.933,1.247-1.978,2.4-2.9,3.656-.234.318-.185.848-.265,1.267,1.124.352,2.137.668,3.153.984ZM-5.782,6.444c.149-.027.344,0,.442-.09C-3.618,4.82-1.893,3.292-.209,1.721A1.781,1.781,0,0,0,.2-.013C.139-.3.033-.7-.176-.812a.941.941,0,0,0-.85.147,25.9,25.9,0,0,0-5.024,6,1.518,1.518,0,0,0-.041.86c.01.1.2.17.309.253" transform="translate(8.821 45.043)" fill="#2b2e34"/>
    </g>
    <g id="Group_821" data-name="Group 821" transform="translate(69.865)">
      <path id="Path_8814" data-name="Path 8814" d="M.755,2.094c1.024-.1,1.533-.961,2.233-1.546C3.578.055,4.181-.421,4.8-.873c.418-.3,1.346.321,1.3.906a2.294,2.294,0,0,1-.357,1.285C4.9,2.23,3.952,3.036,3.058,3.9A14.4,14.4,0,0,0,.293,7.642,2.528,2.528,0,0,0-.071,9.856c.183.452,1.28.651,2.129.351,1.6-.571,3.174-1.187,4.614-1.731,1.219-1.687,2.283-3.222,3.412-4.7A20.627,20.627,0,0,1,14.711-.8a8.415,8.415,0,0,1,1.23-.615,1.115,1.115,0,0,1,1.386.852c-.016,2.49.062,4.989-.126,7.467-.275,3.6.539,4.361,3.837,2.947a11.23,11.23,0,0,0,1.677-.789c5.106-3.317,9.873-7,12.841-12.558.253-.476.934-.677,1.061-.34a2.133,2.133,0,0,1,.23.878,4.288,4.288,0,0,1-.325,1.351,9.854,9.854,0,0,1-.91,1.634A38.8,38.8,0,0,1,21.8,12.285a7.777,7.777,0,0,1-3.5,1.14A2.319,2.319,0,0,1,15.971,12.2c-.6-1.246-1.031-2.574-1.525-3.841-.942-.085-1.435.549-1.922,1.118a14.5,14.5,0,0,1-3.849,3.34c-.928.521-1.265.544-2.352-.549a1.594,1.594,0,0,0-1.629-.557c-1.194.312-2.371.7-3.568,1a2.673,2.673,0,0,1-3.473-1.508,1.867,1.867,0,0,0-.26-.385,1.013,1.013,0,0,0-1.569-.252c-1.036.927-2.052,1.879-3.122,2.765-.123.1-.545-.124-.8-.251a.676.676,0,0,1-.263-.374.91.91,0,0,1-.031-.465,2.6,2.6,0,0,1,.252-.881C-2.478,2.406,2.847-6.779,9.177-15.294c1.115-1.5,2.2-3.034,3.412-4.445a29.755,29.755,0,0,1,3.039-2.875,4.06,4.06,0,0,1,1.234-.607,2.261,2.261,0,0,1,2.457.84,4.312,4.312,0,0,1,.568,4.017,15.066,15.066,0,0,1-2.959,5.273,52.366,52.366,0,0,1-4.241,4.319,52.329,52.329,0,0,1-9.065,6.5A6.174,6.174,0,0,0,.767,1.272a2.491,2.491,0,0,0,.063.9c-.673-.163-1.079.392-1.6.6.361-.1.415-.036.175.174-.031-.111-.061-.224-.093-.335.575.092,1.161.21,1.444-.523M6.814-6.971a2.592,2.592,0,0,0,.817-.213,32.722,32.722,0,0,0,7.884-7.027,11.082,11.082,0,0,0,2.595-5.349,1.033,1.033,0,0,0-.326-.781,1.031,1.031,0,0,0-.824-.194,5.717,5.717,0,0,0-2.836,2.269C11.633-14.932,9.2-11.557,6.759-8.185a1.811,1.811,0,0,0-.23.867c-.011.106.184.23.286.347m7.55,10.248c.057-.06.013-.27-.051-.366a.311.311,0,0,0-.312,0,6.331,6.331,0,0,0-.5.615c.095.065.229.207.278.182a2.234,2.234,0,0,0,.584-.43" transform="translate(8.412 23.328)" fill="#2b2e34"/>
    </g>
    <g id="Group_822" data-name="Group 822" transform="translate(244.866 3.736)">
      <path id="Path_8815" data-name="Path 8815" d="M.374.8C2.687-1.89,4.985-4.6,7.324-7.266A12.862,12.862,0,0,1,9.06-8.775c.543-.428,1.663.116,1.833.825a3.274,3.274,0,0,1-.658,2.618,1.1,1.1,0,0,1-.709.5,4.962,4.962,0,0,0-3.56,1.9Q2.03,1.313-1.921,5.545a17.473,17.473,0,0,1-1.717,1.5c-.07.056-.284.005-.38-.066s-.18-.288-.142-.337C-2.643,4.7-1.111,2.772.418.839L.374.8" transform="translate(4.169 8.926)" fill="#2b2e34"/>
    </g>
    <g id="Group_823" data-name="Group 823" transform="translate(71.357 12.462)">
      <path id="Path_8816" data-name="Path 8816" d="M.277,0c.391.383.83.638.99,1.015a1.5,1.5,0,0,1-.012,1.263C.171,3.557-1.008,4.754-2.17,5.963a.426.426,0,0,1-.421.046,2.214,2.214,0,0,1-.465-.645.738.738,0,0,1,.025-.451A9.88,9.88,0,0,1,.277,0" transform="translate(3.083)" fill="#2b2e34"/>
    </g>
    <g id="Group_824" data-name="Group 824" transform="translate(222.081 27.258)">
      <path id="Path_8817" data-name="Path 8817" d="M.077,0C.126.678-.142,1.034-.855.942c0,0,.071.071.071.071C-.838.327-.564-.023.149.073Z" transform="translate(0.855)" fill="#2b2e34"/>
    </g>
    <g id="Group_825" data-name="Group 825" transform="translate(167.902 49.728)">
      <path id="Path_8818" data-name="Path 8818" d="M0,0,.332.144S.169.033.154.027,0,0,0,0" fill="#fff"/>
    </g>
  </g>
</svg>
